# xmcd CD database file
#
# Track frame offsets:
#	150
#	44965
#	175013
#
# Disc length: 3687 seconds
#
# Revision: 0
# Processed by: cddbd v1.5.2PL0 Copyright (c) Steve Scherf et al.
# Submitted via: CDex 1.70beta2
#
DISCID=240e6503
DTITLE=Peter Brotzmann - Mats Gustafsson - Paal Nilssen-Love - The Fat is Gone
DYEAR=2006
DGENRE=Jazz
TTITLE0=Bullets Through Rain
TTITLE1=Colours in Action
TTITLE2=The Fat is Gone
EXTD=YEAR: 2006
EXTT0=
EXTT1=
EXTT2=
PLAYORDER=
